<?xml version="1.0" encoding="utf-8"?><!-- Uploaded to: SVG Repo, www.svgrepo.com, Generator: SVG Repo Mixer Tools -->
<svg width="800px" height="800px" viewBox="0 0 24 24" fill="none" xmlns="http://www.w3.org/2000/svg">
<path d="M15 11.1667C15 11.1667 14.6941 11.1667 14.625 11.1667C13.6006 11.1667 12.7077 10.7525 12 10.0001C11.2923 10.7525 10.3995 11.1667 9.37504 11.1667C9.30596 11.1667 9.00004 11.1667 9.00004 11.1667C9.00004 11.1667 9 11.9445 9 12.398C9 14.6121 10.2748 16.4726 12 17.0001C13.7252 16.4726 15 14.6121 15 12.398C15 11.9445 15 11.1667 15 11.1667Z" stroke="#000000" stroke-width="2" stroke-linecap="round" stroke-linejoin="round"/>
<path d="M3 12.1302V14.6001C3 16.8403 3 17.9604 3.43597 18.816C3.81947 19.5687 4.43139 20.1806 5.18404 20.5641C6.03969 21.0001 7.15979 21.0001 9.4 21.0001H14.6C16.8402 21.0001 17.9603 21.0001 18.816 20.5641C19.5686 20.1806 20.1805 19.5687 20.564 18.816C21 17.9604 21 16.8403 21 14.6001V12.1302C21 10.9815 21 10.4071 20.8519 9.87819C20.7208 9.40966 20.5053 8.96898 20.2159 8.5778C19.8893 8.1362 19.436 7.78358 18.5292 7.07834L15.9292 5.05612C14.5239 3.96311 13.8213 3.4166 13.0454 3.20653C12.3608 3.02116 11.6392 3.02116 10.9546 3.20653C10.1787 3.4166 9.47608 3.96311 8.07078 5.05612L5.47078 7.07834C4.56404 7.78358 4.11067 8.1362 3.78405 8.5778C3.49473 8.96898 3.2792 9.40966 3.14805 9.87819C3 10.4071 3 10.9815 3 12.1302Z" stroke="#000000" stroke-width="2" stroke-linecap="round" stroke-linejoin="round"/>
</svg>